<!-- Generated by IcoMoon.io -->
<svg version="1.1" xmlns="http://www.w3.org/2000/svg" viewBox="0 0 39 32">
<symbol id="icon-Chief-Medical" viewBox="0 0 39 32">
<title>Chief-Medical</title>
<path fill="#ef7622" d="M38.506 18.171c0 3.706-2.859 6.711-6.391 6.711h-24.965c-3.527 0-6.388-3.004-6.388-6.711v-10.934c0-3.707 2.861-6.708 6.388-6.708h24.964c3.531 0 6.391 3.002 6.391 6.708v10.934z"></path>
<path fill="#fff" d="M18.296 14.212c-0.077-0.069-0.173-0.086-0.274-0.086-0.093-0.003-0.181 0.043-0.248 0.105-0.070 0.063-0.127 0.145-0.178 0.248-0.162 0.308-0.376 0.634-0.649 0.967-0.27 0.329-0.528 0.591-0.774 0.787-0.386 0.301-0.833 0.541-1.339 0.717-0.143 0.052-0.289 0.097-0.431 0.132-1.247 0.118-1.518-0.725-1.573-1.091l-0.033-3.384 0.033-4.211c0.065-0.375 0.348-1.229 1.643-1.068 0.328 0.087 0.646 0.21 0.958 0.365 0.692 0.352 1.244 0.827 1.669 1.428 0.072 0.106 0.143 0.187 0.218 0.253 0.072 0.062 0.156 0.104 0.25 0.104 0.096 0.003 0.189-0.038 0.259-0.104 0.069-0.062 0.117-0.154 0.115-0.253-0.001-0.158-0.081-0.311-0.215-0.498-0.136-0.183-0.326-0.394-0.583-0.64-1.079-1.032-2.377-1.554-3.861-1.554-0.867 0-1.677 0.186-2.426 0.559-1.027 0.52-1.826 1.274-2.388 2.253-0.526 0.924-0.791 1.909-0.791 2.948 0 1.017 0.255 1.988 0.761 2.89 0.608 1.094 1.498 1.896 2.666 2.397 0.726 0.323 1.451 0.478 2.177 0.478 0.498 0 1.018-0.076 1.55-0.23 0.892-0.254 1.676-0.71 2.334-1.363 0.307-0.302 0.585-0.641 0.841-1.021 0.126-0.188 0.223-0.352 0.288-0.492 0.070-0.143 0.105-0.263 0.11-0.373 0.002-0.096-0.033-0.197-0.11-0.263z"></path>
<path fill="#fff" d="M18.406 17.833c-0.068 0-0.136-0.012-0.202-0.037-0.274-0.111-0.405-0.422-0.297-0.695l2.762-6.891c0.084-0.197 0.278-0.332 0.497-0.332h0.008c0.218 0.003 0.415 0.139 0.494 0.347l2.086 5.587 2.118-5.366c0.080-0.206 0.275-0.34 0.495-0.34h0.002c0.217 0 0.415 0.134 0.496 0.34l2.5 6.316h7.215c0.293 0 0.533 0.241 0.533 0.535 0 0.296-0.24 0.535-0.533 0.535h-7.579c-0.217 0-0.413-0.135-0.496-0.339l-2.135-5.4-2.131 5.4c-0.080 0.204-0.277 0.339-0.495 0.339h-0.008c-0.218 0-0.416-0.138-0.493-0.351l-2.093-5.593-2.248 5.605c-0.087 0.209-0.286 0.338-0.495 0.338z"></path>
<path fill="#fff" d="M18.671 23.836h-10.436c-3.352 0-6.080-2.727-6.080-6.081v-9.989c0-3.352 2.727-6.081 6.080-6.081h22.798c3.353 0 6.081 2.728 6.081 6.081v9.441c0 0.296-0.24 0.538-0.533 0.538-0.296 0-0.533-0.242-0.533-0.538v-9.441c0-2.761-2.25-5.010-5.015-5.010h-22.798c-2.763 0-5.010 2.249-5.010 5.010v9.989c0 2.764 2.247 5.012 5.010 5.012h10.436c0.297 0 0.534 0.238 0.534 0.534s-0.237 0.534-0.535 0.534z"></path>
<path fill="#fff" d="M36.248 21.188c0 0.332-0.267 0.601-0.601 0.601h-26.994c-0.332 0-0.603-0.269-0.603-0.601s0.271-0.603 0.603-0.603h26.994c0.333 0 0.601 0.27 0.601 0.603z"></path>
<path fill="#fff" d="M36.248 19.197c0 0.306-0.244 0.55-0.546 0.55h-22.112c-0.302 0-0.546-0.244-0.546-0.55 0-0.302 0.243-0.547 0.546-0.547h22.112c0.302 0 0.546 0.244 0.546 0.547z"></path>
<path fill="#1c1c1c" d="M3.542 29.822l0.839 0.267c-0.129 0.467-0.343 0.815-0.641 1.042-0.3 0.229-0.679 0.341-1.141 0.341-0.567 0-1.036-0.192-1.404-0.583-0.366-0.389-0.549-0.92-0.549-1.595 0-0.714 0.184-1.269 0.553-1.663 0.367-0.395 0.852-0.592 1.453-0.592 0.525 0 0.95 0.155 1.279 0.466 0.195 0.183 0.341 0.446 0.438 0.789l-0.857 0.203c-0.050-0.222-0.157-0.397-0.317-0.526-0.161-0.128-0.357-0.194-0.586-0.194-0.319 0-0.576 0.115-0.774 0.342s-0.297 0.598-0.297 1.109c0 0.542 0.097 0.928 0.293 1.157 0.194 0.232 0.449 0.347 0.76 0.347 0.229 0 0.429-0.074 0.594-0.22 0.166-0.147 0.285-0.376 0.356-0.691z"></path>
<path fill="#1c1c1c" d="M5.938 27.111v1.577c0.265-0.309 0.583-0.464 0.951-0.464 0.19 0 0.36 0.036 0.511 0.106s0.267 0.16 0.344 0.268c0.078 0.109 0.131 0.229 0.158 0.363 0.028 0.132 0.042 0.338 0.042 0.617v1.822h-0.821v-1.641c0-0.325-0.016-0.532-0.047-0.619s-0.086-0.158-0.165-0.209c-0.080-0.051-0.178-0.077-0.298-0.077-0.136 0-0.257 0.033-0.365 0.099s-0.186 0.166-0.236 0.3c-0.049 0.134-0.074 0.331-0.074 0.592v1.557h-0.822v-4.289h0.822z"></path>
<path fill="#1c1c1c" d="M8.779 27.872v-0.761h0.822v0.761h-0.822zM8.779 31.399v-3.106h0.822v3.106h-0.822z"></path>
<path fill="#1c1c1c" d="M12.243 30.412l0.819 0.137c-0.105 0.3-0.271 0.529-0.499 0.686-0.225 0.157-0.511 0.236-0.851 0.236-0.541 0-0.941-0.178-1.2-0.529-0.204-0.283-0.307-0.64-0.307-1.070 0-0.515 0.135-0.919 0.403-1.21 0.269-0.293 0.61-0.438 1.022-0.438 0.462 0 0.826 0.154 1.094 0.458s0.395 0.772 0.383 1.402h-2.059c0.005 0.244 0.071 0.434 0.199 0.57 0.126 0.134 0.283 0.203 0.473 0.203 0.129 0 0.237-0.035 0.326-0.107 0.087-0.069 0.154-0.183 0.198-0.338zM12.29 29.582c-0.007-0.24-0.068-0.421-0.184-0.544-0.117-0.124-0.26-0.186-0.428-0.186-0.18 0-0.327 0.065-0.445 0.195-0.116 0.131-0.174 0.308-0.172 0.534h1.229z"></path>
<path fill="#1c1c1c" d="M13.416 28.293h0.456v-0.235c0-0.261 0.027-0.456 0.084-0.585s0.158-0.233 0.307-0.314c0.149-0.082 0.338-0.122 0.566-0.122 0.234 0 0.463 0.035 0.688 0.106l-0.112 0.573c-0.131-0.031-0.255-0.047-0.377-0.047-0.119 0-0.204 0.028-0.257 0.084-0.051 0.056-0.077 0.161-0.077 0.321v0.219h0.615v0.646h-0.615v2.46h-0.821v-2.46h-0.456v-0.646z"></path>
<path fill="#1c1c1c" d="M17.43 31.399v-4.289h1.296l0.778 2.927 0.77-2.927h1.299v4.289h-0.804v-3.376l-0.851 3.376h-0.834l-0.847-3.376v3.376h-0.805z"></path>
<path fill="#1c1c1c" d="M24.225 30.412l0.819 0.137c-0.105 0.3-0.272 0.529-0.499 0.686s-0.511 0.236-0.852 0.236c-0.541 0-0.94-0.178-1.199-0.529-0.205-0.283-0.308-0.64-0.308-1.070 0-0.515 0.134-0.919 0.404-1.21 0.269-0.293 0.609-0.438 1.020-0.438 0.463 0 0.828 0.154 1.094 0.458 0.269 0.305 0.395 0.772 0.383 1.402h-2.058c0.007 0.244 0.072 0.434 0.199 0.57 0.127 0.134 0.285 0.203 0.474 0.203 0.128 0 0.237-0.035 0.325-0.107 0.087-0.069 0.154-0.183 0.199-0.338zM24.271 29.582c-0.005-0.24-0.068-0.421-0.185-0.544s-0.259-0.186-0.427-0.186c-0.18 0-0.328 0.065-0.444 0.195-0.118 0.131-0.174 0.308-0.173 0.534h1.229z"></path>
<path fill="#1c1c1c" d="M28.607 31.399h-0.763v-0.456c-0.126 0.178-0.276 0.309-0.45 0.396-0.172 0.088-0.347 0.131-0.522 0.131-0.358 0-0.663-0.144-0.918-0.431s-0.382-0.688-0.382-1.203c0-0.526 0.124-0.929 0.372-1.202s0.56-0.411 0.939-0.411c0.347 0 0.647 0.145 0.9 0.433v-1.546h0.823v4.289zM26.413 29.779c0 0.332 0.046 0.571 0.138 0.718 0.133 0.215 0.317 0.324 0.556 0.324 0.19 0 0.349-0.082 0.482-0.243s0.2-0.401 0.2-0.721c0-0.357-0.065-0.613-0.193-0.77-0.129-0.158-0.295-0.236-0.495-0.236-0.194 0-0.358 0.077-0.49 0.232-0.133 0.154-0.198 0.386-0.198 0.694z"></path>
<path fill="#1c1c1c" d="M29.417 27.872v-0.761h0.821v0.761h-0.821zM29.417 31.399v-3.106h0.821v3.106h-0.821z"></path>
<path fill="#1c1c1c" d="M33.79 29.212l-0.81 0.145c-0.028-0.161-0.089-0.283-0.186-0.365s-0.222-0.123-0.375-0.123c-0.206 0-0.369 0.070-0.491 0.212-0.121 0.141-0.182 0.377-0.182 0.709 0 0.37 0.062 0.628 0.185 0.782 0.124 0.151 0.29 0.229 0.499 0.229 0.156 0 0.285-0.046 0.382-0.134 0.101-0.088 0.171-0.241 0.212-0.458l0.808 0.137c-0.084 0.371-0.246 0.651-0.483 0.841s-0.557 0.283-0.956 0.283c-0.454 0-0.817-0.143-1.086-0.43s-0.405-0.683-0.405-1.19c0-0.513 0.134-0.912 0.406-1.199s0.638-0.428 1.099-0.428c0.38 0 0.68 0.081 0.904 0.244s0.384 0.412 0.481 0.745z"></path>
<path fill="#1c1c1c" d="M35.028 29.241l-0.745-0.134c0.084-0.301 0.227-0.524 0.431-0.669 0.207-0.143 0.51-0.216 0.915-0.216 0.366 0 0.638 0.043 0.819 0.13s0.305 0.197 0.379 0.331c0.074 0.133 0.109 0.38 0.109 0.736l-0.008 0.96c0 0.272 0.013 0.473 0.039 0.604s0.076 0.27 0.148 0.417h-0.813c-0.021-0.055-0.047-0.135-0.078-0.243-0.014-0.049-0.023-0.081-0.030-0.096-0.138 0.136-0.289 0.24-0.449 0.306-0.161 0.069-0.332 0.103-0.513 0.103-0.319 0-0.572-0.086-0.755-0.26-0.186-0.174-0.276-0.393-0.276-0.658 0-0.175 0.041-0.333 0.126-0.47s0.201-0.243 0.352-0.316 0.369-0.137 0.654-0.192c0.384-0.072 0.651-0.14 0.799-0.203v-0.083c0-0.157-0.040-0.269-0.117-0.337-0.078-0.067-0.225-0.1-0.443-0.1-0.145 0-0.26 0.027-0.342 0.085s-0.148 0.159-0.199 0.304zM36.128 29.908c-0.106 0.035-0.272 0.077-0.5 0.126-0.229 0.048-0.378 0.097-0.449 0.143-0.106 0.076-0.16 0.173-0.16 0.29s0.043 0.215 0.128 0.299c0.087 0.084 0.195 0.124 0.328 0.124 0.148 0 0.29-0.047 0.424-0.145 0.1-0.074 0.165-0.166 0.196-0.272 0.021-0.071 0.032-0.204 0.032-0.401v-0.164z"></path>
<path fill="#1c1c1c" d="M37.746 31.399v-4.289h0.821v4.289h-0.821z"></path>
</symbol>
</svg>
