<!-- Generated by IcoMoon.io -->
<svg version="1.1" xmlns="http://www.w3.org/2000/svg" viewBox="0 0 54 32">
<symbol id="icon-COMAX" viewBox="0 0 54 32">
<title>COMAX</title>
<path fill="#1c1c1c" d="M8.235 28.942l-2.438 0.007v-0.003c-1.344 0.003-2.435-1.040-2.44-2.327s1.081-2.333 2.426-2.34l-0.001-0.004 2.439-0.007-0.007-2.336-2.438 0.009v0.005c-0.005 0-0.005 0-0.005 0-2.697 0.009-4.875 2.102-4.865 4.681 0.007 2.576 2.197 4.659 4.892 4.651 0 0 0.003 0 0.007 0.001v0l2.437-0.009-0.006-2.328z"></path>
<path fill="#1c1c1c" d="M13.579 21.916c-2.694 0.007-4.875 2.103-4.866 4.68 0.007 2.576 2.201 4.658 4.894 4.651 2.695-0.008 4.874-2.105 4.865-4.681-0.007-2.576-2.197-4.659-4.892-4.65zM13.6 28.914c-1.347 0.006-2.442-1.036-2.445-2.325-0.005-1.289 1.084-2.338 2.431-2.339 1.346-0.007 2.443 1.034 2.446 2.323s-1.086 2.335-2.432 2.341z"></path>
<path fill="#1c1c1c" d="M26.503 21.873c-0.735 0.003-1.408 0.247-1.945 0.648-0.538-0.396-1.211-0.639-1.95-0.636-1.754 0.005-3.168 1.368-3.165 3.042l0.020 6.288 2.431-0.008-0.019-6.282 0.012 0.001c0-0.007-0.002-0.009-0.002-0.013 0-0.387 0.326-0.705 0.731-0.705 0.386-0.002 0.694 0.283 0.728 0.644 0 0.019-0.003 0.044-0.004 0.065l0.019 6.287 0.011-0.002 2.43-0.008-0.020-6.281 0.008 0.002 0.004-0.002c0-0.004 0-0.007 0-0.007-0.001-0.019-0.005-0.044-0.006-0.061 0.030-0.363 0.339-0.65 0.723-0.649 0.405-0.004 0.735 0.311 0.735 0.697 0 0.006 0 0.010 0 0.016h0.005l0.017 6.279 2.425-0.005-0.019-6.283 0.014 0.001c-0.002-0.003 0-0.008 0-0.008-0.005-1.672-1.43-3.027-3.184-3.021z"></path>
<path fill="#1c1c1c" d="M37.993 21.841l0.001 0.625c-0.721-0.396-1.557-0.62-2.449-0.619-2.692 0.008-4.871 2.105-4.864 4.681 0.007 2.575 2.201 4.659 4.892 4.652 0.894-0.003 1.727-0.234 2.445-0.637l0.002 0.627 2.444-0.007-0.028-9.331-2.442 0.009zM35.566 28.847c-1.347 0.004-2.442-1.036-2.446-2.327-0.002-1.288 1.086-2.334 2.432-2.338s2.447 1.035 2.451 2.322c0.003 1.293-1.091 2.339-2.438 2.343z"></path>
<path fill="#1c1c1c" d="M49.228 24.142h0.013l0.002-0.003v-0.007l0.482-0.002-0.007-2.328-0.484 0.001 0.001 0.003h-0.014c-1.454 0.005-2.762 0.623-3.648 1.592-0.902-0.966-2.212-1.574-3.669-1.57h-0.010l-0.002-0.004-0.481 0.003 0.007 2.33 0.481-0.002v0.007l0.002 0.004h0.011c1.346-0.004 2.442 1.035 2.444 2.32 0.005 1.292-1.084 2.339-2.43 2.341h-0.013v0.007l-0.482 0.003 0.009 2.332 0.482-0.001v-0.005l0.010 0.002c1.459-0.005 2.765-0.621 3.66-1.595 0.891 0.97 2.206 1.577 3.657 1.572l0.012 0.001v0.003l0.488-0.002-0.007-2.332-0.485 0.002-0.001-0.009-0.013 0.003c-1.343 0.003-2.435-1.038-2.444-2.327 0-1.286 1.086-2.332 2.43-2.338z"></path>
<path fill="#1c1c1c" d="M50.17 18.41l1.069-0.004c0.479-0.003 0.776 0.208 0.778 0.663 0.001 0.264-0.178 0.479-0.444 0.553l0.494 0.822h-0.599l-0.421-0.731-0.34 0.002 0.002 0.731-0.534 0.002-0.006-2.039zM50.707 19.331h0.49c0.169-0.001 0.282-0.091 0.282-0.279-0.002-0.184-0.114-0.27-0.283-0.27l-0.49 0.002 0.001 0.546z"></path>
<path fill="#1c1c1c" d="M51.045 17.598c-1.077 0.004-1.95 0.842-1.946 1.876 0.002 1.028 0.879 1.861 1.957 1.86 1.079-0.003 1.955-0.843 1.951-1.872-0.004-1.032-0.883-1.867-1.961-1.864zM51.054 20.96c-0.862 0.003-1.563-0.66-1.564-1.485-0.004-0.827 0.692-1.497 1.556-1.499s1.564 0.663 1.566 1.489c0.002 0.826-0.695 1.494-1.558 1.496z"></path>
<path fill="#1b93d2" d="M7.995 14.507c1.836-5.172 15.821-6.95 19.657-7.685 2.121-0.409 2.124-1.927 1.775-3.131 0 0 8.609 0.79 12.924 1.824 0 0-9.729 1.119-13.598 2.071-4.594 1.127-9.521 2.775-12.038 6.57l-8.72 0.352z"></path>
<path fill="#1b93d2" d="M10.556 10.623c-0.016-0.172-0.031-0.348-0.031-0.524-0.014-4.639 6.527-8.419 14.622-8.444 3.301-0.009 6.352 0.605 8.801 1.659 2.093 0.258 4.35 0.552 6.414 0.848-3.587-2.119-9.076-3.459-15.218-3.44-10.787 0.033-19.515 4.235-19.5 9.39 0.004 1.312 0.574 2.552 1.587 3.68 0.707-1.242 1.882-2.289 3.326-3.169z"></path>
<path fill="#1b93d2" d="M38.752 6.884c0.676 0.967 1.057 2.019 1.061 3.123 0.014 4.638-6.533 8.42-14.618 8.445-4.781 0.013-9.029-1.284-11.707-3.308l-4.524 0.153c3.511 2.488 9.474 4.108 16.235 4.087 10.778-0.033 19.506-4.237 19.492-9.391-0.006-1.334-0.601-2.601-1.656-3.75-1.356 0.202-2.818 0.424-4.283 0.641z"></path>
</symbol>
</svg>
