<!-- Generated by IcoMoon.io -->
<svg version="1.1" xmlns="http://www.w3.org/2000/svg" viewBox="0 0 48 32">
<symbol id="icon-EXCELLENCE" viewBox="0 0 48 32">
<title>EXCELLENCE</title>
<path fill="#c71d1d" d="M23.511 0.258l10.894 7.381-10.734-2.362-5.283 5.843 10.892 7.513 7.921-4.561-8.397 9.444-18.185-11.766z"></path>
<path fill="#c71d1d" d="M26.31 8.024l3.316 4.172-6.585 0.007z"></path>
<path fill="#1c1c1c" stroke="#000" stroke-width="0.4626" stroke-miterlimit="4" stroke-linecap="butt" stroke-linejoin="miter" d="M0.368 31.662l-0.006-5.171 3.787-0.005 0.001 0.879-2.759 0.003v1.142l2.568-0.002 0.003 0.875-2.571 0.003 0.003 1.396h2.864l0.001 0.875-3.891 0.006z"></path>
<path fill="#1c1c1c" stroke="#000" stroke-width="0.4626" stroke-miterlimit="4" stroke-linecap="butt" stroke-linejoin="miter" d="M4.605 31.656l1.765-2.684-1.613-2.486 1.228-0.001 1.007 1.539 1.016-1.542h1.191l-1.604 2.465 1.769 2.704-1.253 0.001-1.136-1.749-1.14 1.752-1.229 0.001z"></path>
<path fill="#1c1c1c" stroke="#000" stroke-width="0.4626" stroke-miterlimit="4" stroke-linecap="butt" stroke-linejoin="miter" d="M13.161 29.755l1.007 0.311c-0.154 0.566-0.408 0.987-0.766 1.262s-0.811 0.414-1.361 0.414c-0.68 0-1.239-0.234-1.678-0.704-0.44-0.47-0.658-1.111-0.658-1.925-0.002-0.861 0.217-1.533 0.657-2.012 0.44-0.476 1.019-0.714 1.737-0.714 0.628-0.002 1.136 0.185 1.527 0.557 0.235 0.221 0.411 0.537 0.529 0.951l-1.028 0.244c-0.060-0.268-0.186-0.478-0.382-0.634-0.19-0.154-0.424-0.231-0.702-0.229-0.378 0-0.687 0.138-0.924 0.413-0.235 0.277-0.353 0.726-0.353 1.345 0.001 0.657 0.118 1.125 0.35 1.403 0.234 0.276 0.539 0.418 0.911 0.418 0.275-0.002 0.511-0.091 0.71-0.268 0.197-0.176 0.34-0.454 0.424-0.83z"></path>
<path fill="#1c1c1c" stroke="#000" stroke-width="0.4626" stroke-miterlimit="4" stroke-linecap="butt" stroke-linejoin="miter" d="M15.047 31.644l-0.008-5.17 3.79-0.007v0.881l-2.761 0.004 0.001 1.142 2.567-0.003 0.003 0.877-2.569 0.003 0.002 1.398 2.864-0.005v0.876l-3.889 0.005z"></path>
<path fill="#1c1c1c" stroke="#000" stroke-width="0.4626" stroke-miterlimit="4" stroke-linecap="butt" stroke-linejoin="miter" d="M19.83 31.638l-0.005-5.122 1.028-0.003 0.004 4.25 2.568-0.003 0.002 0.874-3.596 0.005z"></path>
<path fill="#1c1c1c" stroke="#000" stroke-width="0.4626" stroke-miterlimit="4" stroke-linecap="butt" stroke-linejoin="miter" d="M24.191 31.634l-0.006-5.123h1.028l0.005 4.247 2.567-0.004v0.88l-3.594 0.001z"></path>
<path fill="#1c1c1c" stroke="#000" stroke-width="0.4626" stroke-miterlimit="4" stroke-linecap="butt" stroke-linejoin="miter" d="M28.528 31.631l-0.006-5.17 3.789-0.005 0.002 0.876-2.764 0.004 0.002 1.142 2.568-0.003 0.002 0.879-2.57 0.003 0.003 1.394 2.864-0.003 0.002 0.878-3.892 0.004z"></path>
<path fill="#1c1c1c" stroke="#000" stroke-width="0.4626" stroke-miterlimit="4" stroke-linecap="butt" stroke-linejoin="miter" d="M33.291 31.627l-0.006-5.172 1.004-0.002 2.104 3.458-0.004-3.461h0.96l0.006 5.172h-1.037l-2.072-3.385 0.003 3.388-0.958 0.002z"></path>
<path fill="#1c1c1c" stroke="#000" stroke-width="0.4626" stroke-miterlimit="4" stroke-linecap="butt" stroke-linejoin="miter" d="M41.718 29.723l1.005 0.311c-0.153 0.566-0.408 0.988-0.765 1.263-0.356 0.272-0.812 0.413-1.36 0.413-0.681 0.001-1.242-0.234-1.679-0.703s-0.658-1.113-0.66-1.928c0-0.86 0.219-1.531 0.659-2.010 0.44-0.476 1.019-0.715 1.738-0.717 0.626 0 1.137 0.189 1.527 0.562 0.234 0.219 0.41 0.536 0.526 0.95l-1.028 0.242c-0.058-0.267-0.187-0.477-0.379-0.632-0.192-0.157-0.424-0.232-0.702-0.232-0.381 0-0.689 0.14-0.925 0.414-0.237 0.278-0.355 0.725-0.355 1.344 0.001 0.657 0.12 1.124 0.353 1.402 0.232 0.278 0.538 0.419 0.91 0.419 0.275 0 0.511-0.092 0.709-0.267 0.2-0.177 0.341-0.45 0.426-0.831z"></path>
<path fill="#1c1c1c" stroke="#000" stroke-width="0.4626" stroke-miterlimit="4" stroke-linecap="butt" stroke-linejoin="miter" d="M43.6 31.614l-0.004-5.171 3.786-0.004 0.003 0.876-2.763 0.002 0.002 1.145 2.568-0.004 0.001 0.878-2.568 0.002 0.002 1.398 2.866-0.003v0.876l-3.892 0.005z"></path>
</symbol>
</svg>
